<?xml version="1.0" encoding="UTF-8" standalone="no"?>
<svg xmlns:rdf="http://www.w3.org/1999/02/22-rdf-syntax-ns#" xmlns="http://www.w3.org/2000/svg" xml:space="preserve" height="316" viewBox="0 0 397.75836 399.62161" width="315" version="1.1" xmlns:cc="http://creativecommons.org/ns#" xmlns:dc="http://purl.org/dc/elements/1.1/"><g transform="matrix(1.25 0 0 -1.25 -991.12 695.81)"><path d="m188.91 1.2734l-0.05 2.0743 2.43 0.5839-0.44 17.259c-0.2 7.734 4.21 12.331 12.09 12.534 7.87 0.203 12.52-4.161 12.71-11.895l0.45-17.26 2.46-0.4548 0.06-2.0761-8.11-0.209-0.05 2.0761 2.43 0.5821-0.43 16.93c-0.16 5.895-3.55 9.252-8.59 9.121-6.32-0.162-8.73-3.857-8.57-9.846l0.43-16.646 2.46-0.4572 0.06-2.0742-9.34-0.2422zm45.44 2.9317l-0.53 2.0078c1.02 0.3687 1.46 1.1177 1.96 2.1777l-6.37 24.035-2.5-0.127-0.53 2.008 7.84 2.078 0.53-2.008-2.23-1.127 5.42-20.48 13.99 28.601 2.06 0.543 7.38-27.867 2.51 0.127 0.53-2.004-7.85-2.08-0.53 2.006 2.24 1.131-5.28 19.929-13.53-27.597-5.11-1.3539zm-77.69 1.5351l-22.2 6.1138 0.55 2.003 2.5-0.152 6.9 25.022-2.23 1.152 0.55 2.002 21.47-5.916 0.67-6.643-1.99-0.285c-1.7 4.826-3.67 5.514-7.22 6.49l-7 1.932-3.28-11.875 10.2-2.807 1.27 2.682 2.28-0.625-2.11-7.645-2.27 0.629 0.15 2.502-10.19 2.809-2.9-10.51 9.06-2.494c3-0.8288 4.73-0.4219 6.18 2.359l1.9-0.916-2.29-5.8278zm121.73 12.572l-0.88 1.879 2 1.512-11.02 23.5-2.45-0.572-0.88 1.881 8.46 3.968 0.88-1.878-2-1.514 11.03-23.498 2.44 0.57 0.88-1.879-8.46-3.969zm-160.27 0.196l-1.69 0.838 0.16 1.605c-0.88-0.404-3.22-0.874-6.22 0.617-4.48 2.225-7.11 6.69-4.59 11.76 4.26 8.578 17.87 0.027 21.23 6.787 1.76 3.549-0.27 6.456-3.02 7.821-4.39 2.182-8.5-0.044-11.07-2.139l-1.63 1.705 5.22 6.576 1.65-0.82-0.15-1.561c2.26 0.302 4.6 0.138 7.05-1.08 4.23-2.099 8.38-7.109 5.27-13.363-4.62-9.296-18.17-0.616-21.21-6.742-1.13-2.283-0.6-4.813 2.48-6.346 3.55-1.764 7.41-0.149 9.87 1.84l1.63-1.705-4.98-5.793zm180.08 9.295l-1.18 1.707c1.21 1.069 1.48 2.002 1.09 3.801l-6.19 28.83 1.79 1.234 24.88-15.879c1.55-0.994 2.52-1.069 3.95-0.31l1.18-1.707-6.52-4.514-1.18 1.707 1.72 1.824-20.64 13.481 5.48-23.985 2.31 0.969 1.18-1.705-7.87-5.453zm-209.22 6.306l-6.401 4.993 1.278 1.636 2.253-1.099 10.422 13.361c3.631 4.652 3.141 9.4-0.841 12.506-4.987 3.889-9.195 2.56-12.881-2.166l-10.245-13.135 1.616-1.92-1.278-1.637-7.369 5.747 1.278 1.638 2.253-1.099 10.626 13.619c4.758 6.103 11.088 6.853 17.302 2.006 6.22-4.848 7.03-11.17 2.272-17.274l-10.623-13.619 1.615-1.92-1.277-1.637zm126.5 10.916l-0.26 1.436c-0.1 0.555-2.17 13.055 6.59 28.068-12.71-3.823-21.85-1.204-22.31-1.064l-1.4 0.418 0.48 1.379c0.19 0.565 4.96 13.948 22.25 22.832 0.84 0.436 1.68 0.811 2.51 1.187-7.37 2.079-11.35 5.589-11.59 5.799l-1.09 0.98 1.02 1.04c0.33 0.34 8.29 8.29 23.63 8.76 0.47 0.02 0.94 0.02 1.4 0.02 14.45 0 22.38-6.99 22.72-7.3l1.08-0.98-1.02-1.04c-0.16-0.16-2.09-2.09-5.75-4.09l-0.47-1.38c-0.08-0.23-0.9-2.495-2.93-5.69 0.33-2.272 1.67-15.403-8.29-30.451-10.73-16.206-24.56-19.473-25.14-19.603l-1.43-0.321zm4 4.157c4.55 1.893 13.16 6.638 20.23 17.312 7.03 10.604 8.07 20.319 8.04 25.285-0.14-0.187-0.28-0.371-0.44-0.562l-27.83-42.035zm-1.73 1.14l22.45 33.887c-2.58-2.073-5.6-4.109-9.18-5.949-1.72-0.881-3.38-1.603-5.01-2.248-0.07-0.103-0.15-0.194-0.22-0.299-7.07-10.675-8.07-20.456-8.04-25.391zm115.29 3.598l-1.5 1.434 1.32 2.132-18.76 17.934-2.07-1.416-1.5 1.434 15.39 16.099 6.17-2.564-0.7-1.883c-5.05 0.787-6.59-0.619-9.13-3.278l-5.02-5.253 8.9-8.508 7.3 7.64-1.75 2.397 1.63 1.705 5.73-5.477-1.63-1.705-2.14 1.319-7.3-7.639 7.88-7.531 6.49 6.787c2.15 2.251 2.61 3.962 0.85 6.56l1.71 1.241 4.04-4.782-15.91-16.646zm-147.51 4.193c-5.42 0.014-15.51 1.253-26.61 8.703-16.14 10.835-19.31 24.682-19.44 25.266l-0.31 1.426 1.44 0.252c0.18 0.032 1.64 0.273 4.04 0.273 3.31 0 8.43-0.464 14.46-2.554l0.07 0.07c0.33 0.337 8.29 8.284 23.63 8.761 0.47 0.01 0.94 0.02 1.4 0.02 14.45 0 22.37-7 22.72-7.307l1.08-0.976-1.02-1.043c-0.33-0.338-8.29-8.287-23.63-8.762-3.19-0.092-6.06 0.168-8.64 0.621 13.2-10.36 15.96-22.259 16.07-22.799l0.32-1.425-1.44-0.254c-0.19-0.033-1.68-0.278-4.14-0.272zm-45.34 2.342l-1.38 0.502c-0.56 0.205-13.84 5.232-22.39 22.689-8.55 17.454-4.37 31.034-4.18 31.604l0.44 1.39 1.37-0.5c0.48-0.18 10.26-3.9 18.43-15.88 1.66 2.94 6.89 10.57 18.4 15.31 5.94 2.45 11.24 3.18 15.42 3.18 5.81 0 9.47-1.4 9.72-1.5l1.36-0.53-0.59-1.34c-0.19-0.43-4.84-10.67-19.02-16.515-10.58-4.36-19.12-3.248-22.96-2.328 0.56-0.985 1.11-2.012 1.64-3.088 8.54-17.457 4.36-31.033 4.18-31.603l-0.44-1.391zm45.63 0.484l-42.52 28.551c1.86-4.569 6.55-13.21 17.18-20.347 10.63-7.14 20.41-8.212 25.34-8.204zm69.89 1.416l-0.52 1.364c-0.21 0.559-5.13 13.888 2.44 31.787 7.58 17.894 20.57 23.644 21.12 23.884l1.34 0.57 0.53-1.36c0.21-0.56 5.13-13.89-2.45-31.788s-20.57-23.644-21.12-23.88l-1.34-0.577zm-68.73 0.293c-1.84 4.558-6.52 13.188-17.19 20.356-10.63 7.137-20.4 8.206-25.34 8.201l42.53-28.557zm-50.21 2.444l-22.53 46.018c-0.68-4.87-0.96-14.684 4.7-26.233 5.63-11.501 13.55-17.32 17.83-19.785zm1.85 0.896c0.69 4.872 0.96 14.681-4.69 26.229-5.63 11.503-13.56 17.323-17.83 19.783l22.52-46.012zm-84.86 0.324l-1.037 1.288 0.742 1.261c-1.918 0.275-5.797 1.633-9.024 5.641-5.236 6.507-4.713 16.62 2.971 22.805 7.574 6.093 16.657 4.743 22.457-2.463 4.024-5 3.725-9.297 4.453-11.256 0.26-0.7 0.52-1.097 0.817-1.463l-4.034-5.002-1.89 1.143c1.715 3.441 2.333 9.448-1.277 13.933-4.172 5.184-11.913 6.222-18.495 0.926-6.837-5.503-5.77-12.399-2.043-17.031 4.083-5.073 9.648-5.137 12.698-4.561l0.683-2.054-7.021-3.167zm205.1 0.848c4.13 2.678 11.72 8.902 16.73 20.746 4.99 11.791 4.19 21.584 3.24 26.434l-19.97-47.18zm-1.89 0.819l19.97 47.171c-4.13-2.7-11.73-8.94-16.73-20.736-4.99-11.794-4.18-21.593-3.24-26.435zm-48.83 7.31c5.36 0.004 13.02 1.057 21.59 5.463 11.39 5.851 17.06 13.889 19.44 18.209l-45.57-23.412c1.22-0.147 2.75-0.261 4.54-0.26zm-5.47 2.102l45.57 23.409c-4.88 0.59-14.7 0.68-26.13-5.198-11.39-5.853-17.06-13.891-19.44-18.211zm156.67 6.218l-1.76 1.1 0.86 2.357-22 13.774-1.74-1.807-1.76 1.107 5.2 8.32 1.76-1.1-1.11-2.76 9.52-5.961c4.11 8.961-7.32 15.611-2.81 22.811 0.63 1 1.34 1.61 2.11 2.13l1.6-1c-2.83-5.69 3.78-10.78 3.47-17.15 3.05 3.54 7.17 4.97 11.53 2.24 4.56-2.85 4.95-8.381 2.02-13.061l-6.89-11zm-177.76 1.416c0.55-0.005 1.12 0.002 1.7 0.02 9.24 0.285 15.63 3.542 18.98 5.791l-38.29-1.184c3.27-1.911 9.26-4.544 17.61-4.627zm-81.961 1.01l-1.012 1.053c-0.326 0.341-8.025 8.54-8.025 23.882 0 2.1 0.154 4.05 0.402 5.88-2.77-3.68-5.094-5.52-5.304-5.68l-1.157-0.89-0.843 1.19c-0.347 0.49-8.42 12.18-5.528 31.4 0.344 2.28 0.81 4.4 1.354 6.39-7.878-10.72-16.78-14.12-17.236-14.29l-1.372-0.51-0.447 1.39c-0.182 0.57-4.403 14.14 4.092 31.62 8.496 17.48 21.77 22.55 22.33 22.75l1.369 0.51 0.447-1.39c0.153-0.47 3.064-9.92-0.806-23.11 2.536 3.22 4.595 4.87 4.793 5.02l1.156 0.89 0.844-1.19c0.29-0.41 5.994-8.72 6.124-22.73 1 0.17 2.59 0.36 4.66 0.36 4.55 0 11.35-0.93 18.95-5.15 5.09-2.81 8.74-6.1 11.32-9.12 1.74 0.21 3.42 0.33 4.98 0.33 11.23 0 17.91-4.59 18.24-4.82l1.19-0.84-0.88-1.16c-0.29-0.37-7.23-9.22-22.39-11.55-15.18-2.33-24.44 4.03-24.83 4.3l-1.19 0.84 0.88 1.16c0.14 0.18 1.74 2.2 4.93 4.54-0.34 0.18-0.66 0.33-1 0.51-8.45 4.68-12.94 10.65-15.15 14.55-0.09-0.86-0.17-1.72-0.31-2.62-0.2-1.31-0.436-2.55-0.702-3.76l0.121 0.12 1.011-1.05c0.33-0.34 8.02-8.54 8.02-23.89 0-15.342-7.69-23.541-8.02-23.882l-1.011-1.053zm261.54 4.567l2.1 3.359c2.68 4.28 1.91 7.769-2.01 10.219-3.68 2.31-6.58 0.61-8.73-2.83-1.15-1.836-1.54-3.434-1.64-4.315l10.28-6.433zm-64.68 1.017l-0.87 1.17c-0.36 0.479-8.74 11.951-6.37 31.241 0.45 3.6 1.19 6.86 2.11 9.76-4.25-3.54-12.55-8.87-25.38-10.43-19.3-2.35-30.75 6.06-31.22 6.42l-1.17 0.87 0.92 1.13c0.38 0.47 9.49 11.37 28.79 13.71 2.35 0.29 4.59 0.42 6.71 0.42 12.76 0 21.04-4.58 23.64-6.24 3.99 8.63 9.05 12.86 9.36 13.12l1.13 0.92 0.88-1.17c0.05-0.07 0.29-0.41 0.64-0.95 0.01 5.47 1.26 8.92 1.35 9.17l0.52 1.37 1.34-0.57c0.44-0.19 10.74-4.69 16.79-18.79 6.04-14.11 2.2-24.68 2.03-25.12l-0.52-1.36-1.34 0.57c-0.37 0.15-8.1 3.55-14.09 13.54 0.12-2.81 0.04-5.83-0.36-9.1-2.38-19.29-13.29-28.38-13.76-28.759l-1.13-0.922zm-132.57 0.096l38.3 1.183c-3.47 2.038-10.05 4.895-19.32 4.608-9.24-0.285-15.63-3.544-18.98-5.791zm-63.26 0.09c2.14 3.4 5.2 9.875 5.2 19.165 0 9.25-3.06 15.74-5.2 19.15v-38.315zm-2.064 0.015v38.32c-2.144-3.4-5.201-9.87-5.201-19.17 0-9.25 3.058-15.733 5.201-19.15zm199.61 5.285c3.23 3.705 8.82 11.775 10.39 24.535 0.91 7.4 0.12 13.6-1.14 18.37-0.18 0.57-0.34 1.13-0.48 1.68-0.81 2.63-1.73 4.74-2.51 6.26l-6.26-50.845zm-2.05 0.266l6.27 50.849c-3.23-3.71-8.82-11.77-10.4-24.54-1.56-12.71 1.9-21.91 4.13-26.309zm-153.45 1.145c3.82 0.037 8.62 0.726 14 2.944 8.55 3.52 13.38 8.82 15.72 12.1l-35.43-14.597c1.49-0.258 3.42-0.47 5.71-0.447zm-6.48 2.364l35.42 14.59c-3.98 0.68-11.14 1.04-19.69-2.49-8.56-3.52-13.39-8.82-15.73-12.1zm91.79 0.27c6.13 2.12 11.54 2.74 15.69 2.74 2.29 0 4.18-0.18 5.61-0.39 2.29 0.96 4.12 2 5.45 2.89l-38.29-1.18c2.4-1.41 6.32-3.18 11.54-4.06zm-11.6 6.12l38.29 1.19c-3.49 2.03-10.07 4.88-19.31 4.6s-15.63-3.54-18.98-5.79zm-87.37 1.62c-1.37 0-2.49 1.11-2.49 2.49s1.12 2.49 2.49 2.49c1.38 0 2.5-1.11 2.5-2.49s-1.12-2.49-2.5-2.49zm-107.74 1.65l-0.961 1.95 19.373 22.27c1.211 1.39 1.427 2.34 0.887 3.86l1.863 0.92 3.504-7.11-1.864-0.92-1.548 1.97-4.715-5.27 5.818-11.81 7.051 0.53-0.619 2.43 1.863 0.92 4.234-8.59-1.861-0.92c-0.879 1.36-1.765 1.76-3.601 1.65l-29.424-1.88zm4.9 4.57l14.524 1.06-4.84 9.81-9.684-10.87zm60.182 0.61c3.329 3.62 9.133 11.53 11.047 24.25 1.905 12.66-1.308 21.95-3.422 26.41l-7.625-50.66zm-2.039 0.32l7.623 50.65c-3.334-3.64-9.14-11.58-11.045-24.24-1.906-12.66 1.308-21.95 3.422-26.41zm185.85 0.88c-1.38 0-2.49 1.11-2.49 2.49 0 1.37 1.11 2.49 2.49 2.49s2.49-1.12 2.49-2.49c0-1.38-1.11-2.49-2.49-2.49zm-140.2 1.64c1.99-0.02 4.14 0.12 6.44 0.48 9.14 1.4 15.09 5.41 18.14 8.04l-37.88-5.81c2.77-1.21 7.32-2.66 13.3-2.71zm154.43 0.41c-1.38 0-2.49 1.11-2.49 2.49s1.11 2.49 2.49 2.49c1.37 0 2.49-1.11 2.49-2.49s-1.12-2.49-2.49-2.49zm39.51 2.23l-15.1 35.22c-0.47-2.95-0.72-7.66 0.68-13.39 0.29-0.91 0.57-1.88 0.82-2.91 0.36-1.1 0.78-2.22 1.27-3.37 3.65-8.5 9.01-13.26 12.33-15.55zm51.14 0.15c-0.9 0.04-1.86 0.25-2.85 0.63-8.94 3.44-1.69 17.79-8.73 20.51-3.7 1.42-6.41-0.87-7.51-3.74-1.76-4.57 0.84-8.46 3.16-10.82l-1.54-1.78-7.04 4.58 0.66 1.72h1.57c-0.51 2.22-0.56 4.57 0.42 7.12 1.7 4.4 6.3 9 12.82 6.49 9.68-3.73 2.31-18.03 8.69-20.49 2.38-0.92 4.85-0.15 6.08 3.06 1.43 3.7-0.54 7.39-2.75 9.66l1.55 1.78 6.23-4.42-0.68-1.76-1.61 0.01c0.49-0.84 1.17-3.13-0.03-6.26-1.46-3.79-4.51-6.5-8.44-6.29zm-49.25 0.66c0.63 3.98 0.89 11.15-2.76 19.65-3.64 8.5-9.01 13.26-12.33 15.55l15.09-35.2zm-209.42 1.3l37.86 5.82c-3.7 1.6-10.58 3.63-19.72 2.23s-15.09-5.41-18.14-8.05zm142.43 2.45c2.14-0.02 4.4 0.09 6.8 0.38 12.71 1.55 20.8 7.13 24.54 10.35l-50.86-6.18c3.56-1.82 10.28-4.46 19.52-4.55zm-139.5 3.13c1.6 0.96 3.45 1.91 5.58 2.75l-22.15 12.27c1.93-3.52 6.11-9.33 14.25-13.83 0.78-0.44 1.56-0.82 2.32-1.19zm119.74 3.47l50.86 6.18c-4.38 2.25-13.55 5.72-26.32 4.17-12.71-1.54-20.8-7.12-24.54-10.35zm-111.56 0.21c1.51 0.48 3.13 0.9 4.87 1.24-2.29 2.42-5.33 4.96-9.33 7.17-8.1 4.48-15.25 4.95-19.28 4.73l23.74-13.14zm47.64 5.71c-3.26 0-5.13 1.53-5.13 4.2 0 2.59 1.94 3.36 4.1 3.98 2.64 0.77 3.4 1.42 3.4 2.9 0 1.53-1.16 2.41-3.17 2.41-1.75 0-3.18-0.63-3.93-1.22l-0.15-0.11-0.36 2.08-0.01 0.08 0.06 0.03c0.41 0.27 1.91 1.13 4.17 1.13 3.52 0 5.53-1.73 5.53-4.73 0-2.98-2.23-3.84-4.53-4.47-2.37-0.64-2.99-1.13-2.99-2.39 0-1.19 1.09-1.9 2.9-1.9 1.98 0 3.07 0.68 3.36 0.88l0.14 0.11 0.37-1.85 0.01-0.07-0.05-0.05c-0.63-0.47-1.98-1.01-3.72-1.01zm31.36 0c-4.41 0-7.6 3.25-7.6 7.74 0 4.48 3.19 7.74 7.6 7.74s7.61-3.26 7.61-7.74c0-4.49-3.2-7.74-7.61-7.74zm16.19 0c-3.26 0-5.13 1.53-5.13 4.2 0 2.59 1.94 3.36 4.11 3.98 2.63 0.77 3.39 1.42 3.39 2.9 0 1.53-1.15 2.41-3.16 2.41-1.75 0-3.18-0.63-3.94-1.22l-0.14-0.11-0.37 2.08-0.01 0.08 0.06 0.03c0.41 0.27 1.91 1.13 4.18 1.13 3.51 0 5.52-1.73 5.52-4.73 0-2.98-2.23-3.84-4.52-4.47-2.38-0.64-2.99-1.13-2.99-2.39 0-1.19 1.08-1.9 2.89-1.9 1.98 0 3.08 0.68 3.36 0.88l0.14 0.11 0.37-1.85 0.01-0.07-0.05-0.05c-0.63-0.47-1.98-1.01-3.72-1.01zm-39.32 0.33v9.71c0 3.39 2.17 5.42 5.81 5.42 3.65 0 5.82-2.03 5.82-5.42v-9.71h-1.95v9.82c0 2.15-1.43 3.43-3.82 3.43-2.4 0-3.83-1.28-3.83-3.43v-9.82h-2.03zm-119.09 0.49c4.259 2.46 12.156 8.28 17.775 19.85 5.598 11.51 5.305 21.34 4.617 26.23l-22.392-46.08zm-1.852 0.91l22.391 46.08c-4.259-2.46-12.159-8.28-17.778-19.85-5.596-11.51-5.3-21.34-4.613-26.23zm144.07 0.17c3.22 0 5.46 2.4 5.46 5.84s-2.24 5.84-5.46 5.84c-3.28 0-5.48-2.35-5.48-5.84s2.2-5.84 5.48-5.84zm-190.72 3.35c-4.327-0.11-7.7132 3.22-8.8693 7.91l-3.1054 12.59 2.0156 0.5 1.0918-2.26 25.193 6.21-0.082 2.51 2.016 0.5 2.349-9.53-2.017-0.5-1.203 2.72-10.903-2.69c3.575-9.18 16.3-5.6 18.332-13.85 0.283-1.14 0.223-2.08 0.059-3l-1.832-0.45c-2.109 5.99-10.363 4.78-14.719 9.44 0.42-4.66-1.424-8.61-6.418-9.84-0.653-0.16-1.29-0.25-1.908-0.26zm317.84 0.31l-1.34 0.57c-0.44 0.18-10.74 4.69-16.79 18.79-4.03 9.42-3.66 17.24-2.91 21.54-1.91-4.92-6.76-14.13-18.15-21.9-16.06-10.95-30.1-8.74-30.69-8.64l-1.44 0.24 0.3 1.43c0.12 0.58 3.21 14.45 19.27 25.39 11.28 7.69 21.56 8.89 26.88 8.89 2.26 0 6.76-0.84 9.06-2.4-1.8 3.3-3.45 7.49-4.34 12.69-2.6 15.12 3.6 24.5 3.87 24.9l0.81 1.2 1.18-0.86c0.38-0.28 9.35-7.06 11.95-22.18 2.6-15.13-3.6-24.51-3.86-24.9l-0.01-0.01c1.67-2.3 3.3-5.02 4.69-8.27 6.05-14.11 2.2-24.67 2.03-25.12h0.01l-0.52-1.36zm-207.01 3.85l-1.38 0.46c-0.57 0.19-14.01 4.79-23.11 21.96-7.656 14.44-6.229 26.4-5.484 30.19-0.661 0.95-1.923 2.94-3.201 5.89-2.042-5.03-6.963-13.9-17.992-21.4-16.074-10.93-30.106-8.71-30.693-8.61l-1.44 0.25 0.303 1.43c0.124 0.58 3.221 14.44 19.295 25.37 11.261 7.65 21.516 8.86 26.853 8.86 0.61 0 1.152-0.02 1.627-0.04-1.352 4.9-2.227 11.16-1.512 18.66 0.164 1.71 0.414 3.3 0.702 4.85-2.259-2.68-5.256-5.49-9.227-8.06-12.882-8.34-23.945-6.34-24.412-6.25l-1.432 0.28 0.334 1.42c0.109 0.46 2.808 11.38 15.688 19.72 8.574 5.55 16.341 6.52 20.715 6.52 1.216 0 2.158-0.08 2.793-0.15 1.065 2.12 2.166 3.92 3.201 5.4-11.739-5.57-20.973-4.47-21.446-4.41l-1.447 0.19 0.248 1.43c0.103 0.59 2.677 14.56 18.328 26.09 11.909 8.77 22.919 9.89 27.769 9.89 1.52 0 2.44-0.11 2.58-0.13l1.45-0.19-0.25-1.44c-0.1-0.59-2.67-14.56-18.33-26.09-0.53-0.39-1.07-0.74-1.6-1.1 1.76-2.63 6.35-10.62 6.76-23.01 3.39-1.6 7.2-4.01 11-7.67 11.05-10.65 11.61-21.88 11.63-22.35l0.05-1.46h-1.46c-0.47 0-11.72 0.15-22.76 10.8-0.46 0.44-0.89 0.88-1.31 1.32-2.52-7.38-6.13-12.29-8.35-14.81 4.37-2.1 13.79-7.88 20.72-20.95 9.1-17.17 5.36-30.88 5.2-31.45l-0.41-1.41zm-111.74 0.35c0.737 0 1.527 0.1 2.369 0.31 4.215 1.03 5.016 4.29 4.045 8.23-0.519 2.11-1.397 3.5-1.955 4.19l-11.774-2.91 0.9493-3.84c0.9822-3.99 3.1707-5.97 6.3657-5.98zm315.52 0.71l-15.09 35.21c-0.62-3.99-0.88-11.15 2.76-19.66 3.65-8.5 9.01-13.26 12.33-15.55zm1.9 0.8c0.64 3.97 0.9 11.12-2.77 19.66-3.64 8.5-9.01 13.26-12.32 15.56l15.09-35.22zm-227.19 1.09c-1.38 0-2.49 1.12-2.49 2.49 0 1.38 1.11 2.49 2.49 2.49 1.37 0 2.49-1.11 2.49-2.49 0-1.37-1.12-2.49-2.49-2.49zm285.24 0.87l-2.03 0.45 0.03 2.51-25.33 5.65-1.04-2.28-2.03 0.45 2.04 9.13 2.03-0.46-0.03-2.51 25.33-5.65 1.04 2.28 2.03-0.45-2.04-9.12zm-267.29 0.71l-23.992 45.27c-0.525-4.89-0.485-14.71 5.542-26.07 5.99-11.31 14.1-16.87 18.45-19.2zm1.83 0.95c0.52 4.89 0.49 14.71-5.54 26.07-5.99 11.31-14.1 16.88-18.45 19.2l23.99-45.27zm142.67 3.6c4.93 0.02 14.67 1.14 25.29 8.38 10.58 7.21 15.22 15.89 17.05 20.47l-42.34-28.85zm-1.15 1.71l42.34 28.85c-4.92-0.01-14.67-1.14-25.3-8.38-10.58-7.21-15.21-15.88-17.04-20.47zm42.05 7.09c-1.38 0-2.49 1.12-2.49 2.49 0 1.38 1.11 2.49 2.49 2.49 1.37 0 2.49-1.11 2.49-2.49 0-1.37-1.12-2.49-2.49-2.49zm-157.36 2.49c-4.32 0-7.46 3.26-7.46 7.74 0 4.49 3.14 7.74 7.46 7.74 1.87 0 3.57-0.63 5.04-1.88l0.08-0.07-1.15-1.48-0.09 0.08c-0.71 0.66-1.96 1.45-3.88 1.45-3.29 0-5.33-2.23-5.33-5.84 0-3.54 2.07-5.83 5.28-5.83 2.17 0 3.34 0.79 3.84 1.27l0.15 0.14 0.4-2.04-0.06-0.04c-1.1-0.74-2.25-1.24-4.28-1.24zm54.1 0c-4.41 0-7.61 3.26-7.61 7.74 0 4.49 3.2 7.74 7.61 7.74s7.61-3.25 7.61-7.74c0-4.48-3.2-7.74-7.61-7.74zm43.83 0c-3.26 0-5.13 1.54-5.13 4.21 0 2.58 1.95 3.35 4.11 3.97 2.63 0.77 3.39 1.42 3.39 2.9 0 1.54-1.15 2.41-3.16 2.41-1.75 0-3.18-0.62-3.94-1.21l-0.14-0.11-0.37 2.08-0.01 0.07 0.06 0.04c0.41 0.27 1.91 1.12 4.18 1.12 3.51 0 5.53-1.72 5.53-4.73 0-2.97-2.24-3.83-4.53-4.46-2.38-0.65-2.99-1.14-2.99-2.39 0-1.19 1.08-1.91 2.89-1.91 1.98 0 3.08 0.68 3.37 0.89l0.14 0.1 0.36-1.85 0.02-0.07-0.06-0.04c-0.63-0.47-1.97-1.02-3.72-1.02zm-89.17 0.33v9.72c0 3.39 2.17 5.41 5.81 5.41s5.82-2.02 5.82-5.41v-9.72h-1.95v9.83c0 2.14-1.43 3.42-3.82 3.42-2.4 0-3.83-1.28-3.83-3.42v-9.83h-2.03zm16.08 0v14.82h8.25v-1.9h-6.22v-12.92h-2.03zm8.87 0v1.91h4.11v12.91h2.03v-12.91h4.14v-1.91h-10.28zm31.87 0v14.82h2.12v-6.08h1.82l4.52 6.08h2.67l-4.81-6.25c2.01-0.51 3.25-2.1 3.25-4.19 0-2.58-1.91-4.38-4.64-4.38h-4.93zm14.44 0.01v14.81h9.25v-1.9h-7.22v-4.89h6.31v-1.9h-6.31v-4.22h7.1v-1.9h-9.13zm-25.92 1.57c3.21 0 5.46 2.4 5.46 5.83 0 3.44-2.25 5.84-5.46 5.84-3.28 0-5.49-2.34-5.49-5.84 0-3.49 2.21-5.83 5.49-5.83zm13.6 0.33h2.65c1.75 0 2.64 0.83 2.64 2.47 0 1.65-0.89 2.48-2.64 2.48h-2.65v-4.95zm169.76 2.79l-0.25 2.1c3.11 0.46 4.06 1.95 4.26 5.06l0.25 3.72-25.81 1.69-0.71-2.89-2.07 0.14 0.67 10.27 2.07-0.14 0.33-2.95 25.81-1.69 0.24 3.72c0.2 3.1-0.54 4.72-3.56 5.58l0.51 2.04 6.17-1.07-1.65-25.33-6.26-0.25zm-294.23 1.09c-1.375 0-2.49 1.12-2.49 2.49 0 1.38 1.115 2.49 2.49 2.49s2.492-1.11 2.492-2.49c0-1.37-1.117-2.49-2.492-2.49zm-92.506 2.83l-0.291 7.5 2.0742 0.08 0.6153-2.43 11.643 9-12.281 7.31-0.4241-2.47-2.0742-0.08-0.37114 9.48 2.0742 0.08c0.2475-1.5 0.6351-1.77 2.3301-2.84l13.357-8.17 11.223 0.44 0.424 2.48 2.074 0.08 0.365-9.34-2.074-0.08-0.615 2.43-11.223-0.44-12.648-9.94c-1.5578-1.24-1.9719-1.49-2.1019-3.01l-2.0762-0.08zm46.762 1.75c4.935 0.02 14.699 1.15 25.291 8.35 10.591 7.19 15.232 15.86 17.068 20.44l-42.359-28.79zm-1.16 1.71l42.359 28.79c-4.935-0.02-14.702-1.15-25.293-8.35s-15.23-15.87-17.066-20.44zm277.18 2.44l-6.49 37.78c-1.54-3.72-3.46-10.61-1.88-19.78 1.57-9.12 5.68-14.99 8.37-18zm2.04 0.33c1.53 3.72 3.45 10.62 1.88 19.78-1.57 9.12-5.68 14.99-8.37 18l6.49-37.78zm-32.09 8.35l-0.87 1.18c-0.35 0.48-8.67 12-6.17 31.27 0.81 6.28 2.53 11.45 4.48 15.61-0.85-1.16-1.77-2.33-2.83-3.51-10.28-11.39-21.48-12.32-21.95-12.36l-1.46-0.1-0.05 1.46c-0.01 0.47-0.26 11.73 10.04 23.11 10.06 11.1 22.5 12.7 22.5 12.7 0.23 0.05 2.56 0.58 6.34 0.58 5.72 0 14.76-1.22 24.86-7.14 16.76-9.84 20.77-23.47 20.93-24.05l0.4-1.4-1.42-0.34c-0.58-0.14-14.44-3.28-31.2 6.56-4.16 2.44-7.53 5.11-10.25 7.76 1.66-5.29 2.9-12.64 1.72-21.74-2.5-19.28-13.47-28.3-13.93-28.67l-1.14-0.92zm14.13 0.86c-1.37 0-2.49 1.11-2.49 2.49 0 1.37 1.12 2.49 2.49 2.49 1.38 0 2.49-1.12 2.49-2.49 0-1.38-1.11-2.49-2.49-2.49zm-12.38 4.63c3.26 3.71 8.9 11.76 10.54 24.46 1.65 12.7-1.76 21.92-3.96 26.34l-6.58-50.8zm-2.05 0.27l6.58 50.79c-3.26-3.71-8.9-11.76-10.54-24.46-1.65-12.69 1.76-21.92 3.96-26.33zm-123.94 0.5c-4.32 0-7.46 3.25-7.46 7.74 0 4.48 3.14 7.74 7.46 7.74 1.87 0 3.57-0.63 5.05-1.88l0.08-0.07-1.16-1.48-0.09 0.08c-0.71 0.66-1.96 1.45-3.88 1.45-3.29 0-5.33-2.24-5.33-5.84 0-3.55 2.07-5.84 5.28-5.84 2.17 0 3.34 0.8 3.84 1.28l0.15 0.13 0.41-2.04-0.07-0.04c-1.1-0.74-2.25-1.23-4.28-1.23zm-15.18 0c-3.26 0-5.13 1.53-5.13 4.2 0 2.59 1.95 3.36 4.11 3.98 2.63 0.77 3.39 1.42 3.39 2.9 0 1.53-1.15 2.41-3.16 2.41-1.75 0-3.18-0.63-3.94-1.22l-0.14-0.11-0.36 2.09-0.02 0.07 0.06 0.04c0.41 0.26 1.92 1.12 4.18 1.12 3.51 0 5.53-1.72 5.53-4.73 0-2.98-2.24-3.84-4.53-4.47-2.38-0.64-2.99-1.13-2.99-2.39 0-1.19 1.08-1.9 2.89-1.9 1.98 0 3.08 0.68 3.37 0.88l0.14 0.11 0.36-1.85 0.02-0.07-0.06-0.04c-0.63-0.47-1.97-1.02-3.72-1.02zm44.02 0.33v14.82h1.99v-10.66l8.05 10.62 0.04 0.04h1.46v-14.82h-1.99v10.69l-8.05-10.64-0.03-0.05h-1.47zm-19.93 0v6.98 7.84h2.04v-7.88-6.94h-2.04zm6.64 0v14.82h9.24v-1.9h-7.21v-4.89h6.31v-1.9h-6.31v-4.23h7.1v-1.9h-9.13zm28.55 0v1.9h4.11v12.92h2.04v-12.92h4.14v-1.9h-10.29zm14.11 0v6.57 8.25h2.04v-8.11-6.71h-2.04zm11.29 0l-5.64 14.67-0.06 0.15h2.27l1.55-4.16h5.67l1.52 4.09 0.02 0.07h2.39l-5.7-14.75-0.03-0.07h-1.99zm68.87 1.29c-1.37 0-2.49 1.12-2.49 2.5 0 1.37 1.12 2.49 2.49 2.49 1.38 0 2.49-1.12 2.49-2.49 0-1.38-1.11-2.5-2.49-2.5zm-67.93 1.79l2.12 5.68h-4.24l2.12-5.68zm-141.18 2.8c3.126 3.82 8.496 12.05 9.706 24.8 1.22 12.74-2.49 21.85-4.84 26.19l-4.866-50.99zm-2.057 0.2l4.863 51c-1.66-2.01-3.935-5.28-5.9-9.8-0.181-0.49-0.417-1.07-0.715-1.73-1.429-3.69-2.606-8.11-3.099-13.28-1.217-12.75 2.497-21.86 4.851-26.19zm32.583 3.2l-18.45 17.79c-0.32-2.07-0.75-4-1.25-5.81 0.72-0.81 1.47-1.62 2.3-2.43 6.66-6.42 13.45-8.72 17.4-9.55zm1.43 1.49c-0.97 3.91-3.51 10.61-10.17 17.03-3.09 2.98-6.21 5.07-9.06 6.53-0.03-1.27-0.1-2.57-0.23-3.91-0.02-0.28-0.07-0.53-0.1-0.8l19.56-18.85zm262.61 1.93c-0.39 1.47-0.8 1.7-2.58 2.61l-14.06 6.89-11.13-1.48-0.19-2.5-2.06-0.27-1.23 9.26 2.06 0.27 0.84-2.36 11.13 1.48 11.67 11.07c1.43 1.38 1.82 1.67 1.81 3.19l2.06 0.27 0.99-7.43-2.06-0.28-0.84 2.37-10.75-10.05 12.9-6.14 0.19 2.5 2.06 0.27 1.25-9.4-2.06-0.27zm-308.85 2.99c-1.375 0-2.491 1.11-2.491 2.49 0 1.37 1.116 2.49 2.491 2.49s2.492-1.12 2.492-2.49c0-1.38-1.117-2.49-2.492-2.49zm-60.315 0.92c-0.405 0.01-0.822 0.05-1.254 0.12-10.261 1.55-6.14 17.1-12.904 18.13-2.5176 0.38-4.7625-0.9-5.2775-4.31-0.5937-3.92 2.1201-7.1 4.7675-8.83l-1.1249-2.07-7.039 2.97 0.2812 1.87 1.5762 0.33c-0.6538 0.72-1.8164 2.81-1.3164 6.12 0.75 4.94 4.1974 8.81 9.7949 7.96 9.468-1.43 5.489-17.01 12.951-18.14 3.918-0.59 6.063 2.23 6.522 5.27 0.735 4.85-2.64 8.08-5.42 9.88l1.125 2.07 7.853-2.95-0.275-1.82-1.529-0.34c0.976-2.06 1.537-4.34 1.127-7.04-0.663-4.37-3.782-9.46-9.858-9.22zm35.934 9.01c4.017 0.04 11.113 1 18.918 6.05 7.763 5.03 11.546 11.12 13.248 14.77l-32.166-20.82zm-1.108 1.74l32.17 20.83c-4.015-0.04-11.116-1-18.92-6.06-7.763-5.02-11.547-11.11-13.25-14.77zm210.59 1.74c3.88 1.1 10.5 3.87 16.69 10.74 6.2 6.87 8.27 13.73 8.97 17.71l-25.66-28.45zm-116.73 0.35c-4.31 0-7.45 3.26-7.45 7.75 0 4.48 3.14 7.74 7.45 7.74 1.88 0 3.58-0.64 5.05-1.89l0.08-0.07-1.16-1.48-0.08 0.08c-0.72 0.67-1.97 1.45-3.89 1.45-3.23 0-5.33-2.29-5.33-5.83 0-3.55 2.08-5.84 5.29-5.84 2.16 0 3.33 0.8 3.84 1.27l0.14 0.14 0.41-2.04-0.06-0.04c-1.1-0.74-2.25-1.24-4.29-1.24zm15.2 0c-4.41 0-7.61 3.26-7.61 7.75 0 4.48 3.2 7.74 7.61 7.74s7.61-3.26 7.61-7.74c0-4.49-3.2-7.75-7.61-7.75zm32.31 0c-4.41 0-7.61 3.26-7.61 7.75 0 4.48 3.2 7.74 7.61 7.74s7.61-3.26 7.61-7.74c0-4.49-3.2-7.75-7.61-7.75zm-20.83 0.34v14.82h2.12v-6.09h1.82l4.52 6.09h2.67l-4.81-6.26c2.01-0.51 3.25-2.09 3.25-4.18 0-2.58-1.9-4.38-4.64-4.38h-4.93zm32.4 0v14.82h1.99v-10.67l8.05 10.62 0.04 0.05h1.47v-14.82h-2v10.68l-8.05-10.64-0.03-0.04h-1.47zm20.69 0l-5.64 14.66-0.06 0.16h2.27l1.55-4.16h5.66l1.53 4.08 0.02 0.08h2.39l-5.7-14.75-0.03-0.07h-1.99zm8.4 0v1.9h4.11v12.92h2.03v-12.92h4.14v-1.9h-10.28zm73.29 0.37c-1.38 0-2.5 1.12-2.5 2.49 0 1.38 1.12 2.49 2.5 2.49 1.37 0 2.49-1.11 2.49-2.49 0-1.37-1.12-2.49-2.49-2.49zm-46.26 0.32l25.65 28.45c-3.88-1.1-10.49-3.87-16.69-10.74-6.19-6.87-8.27-13.74-8.96-17.71zm-100 0.88c3.22 0 5.46 2.4 5.46 5.84 0 3.43-2.24 5.83-5.46 5.83-3.28 0-5.49-2.34-5.49-5.83 0-3.5 2.21-5.84 5.49-5.84zm32.31 0c3.22 0 5.46 2.4 5.46 5.84 0 3.43-2.24 5.83-5.46 5.83-3.28 0-5.48-2.34-5.48-5.83 0-3.5 2.2-5.84 5.48-5.84zm-18.71 0.33h2.65c1.75 0 2.64 0.83 2.64 2.48 0 1.64-0.89 2.47-2.64 2.47h-2.65v-4.95zm160.82 0.98c0.77 0 1.46 0.03 2.08 0.07l-44.17 25.93c2.13-4.45 7.33-12.79 18.38-19.28 9.66-5.67 18.38-6.74 23.71-6.72zm-108.91 0.2l2.12 5.67h-4.24l2.12-5.67zm112.03 1.65c-2.14 4.44-7.34 12.79-18.38 19.27s-20.86 6.96-25.79 6.66l44.17-25.93zm-218.86 9.29l-0.66 1.31c-0.27 0.53-6.55 13.27-0.88 31.86 5.67 18.6 18 25.66 18.52 25.96l1.27 0.71 0.66-1.3c0.2-0.4 3.71-7.54 3.18-18.79 1.56 5.48 5.25 13.97 13.95 22.14 1.59 1.49 3.17 2.79 4.75 3.97-5.48-0.87-12.89-1.01-21.68 1.45-18.71 5.26-26.05 17.43-26.35 17.94l-0.75 1.26 1.29 0.69c0.38 0.2 6.94 3.61 17.5 3.61 4.19 0 9.02-0.54 14.34-2.03 15.99-4.49 23.65-14 25.74-17.01 5.36 2.33 9.8 3.07 12.2 3.31l-1.26 1.26c-1.02 1.02-1.66 2.28-1.92 3.6l-36.86 12.31c-2.08 0.69-3.27 2.78-2.64 4.66 0.31 0.93 1.01 1.67 1.98 2.06 0.49 0.21 1.02 0.31 1.55 0.31 0.46 0 0.93-0.08 1.38-0.23l36.99-12.34c1.3 1.09 2.9 1.67 4.51 1.67 1.69 0 3.36-0.62 4.7-1.82 0.19 1.49 0.83 2.94 1.97 4.09 1.34 1.33 3.11 2.07 5 2.07 1.88 0 3.65-0.74 4.99-2.07l3.83-3.84 36.22 14.27c0.53 0.21 1.06 0.3 1.59 0.3 1.51 0 2.89-0.81 3.43-2.18 0.36-0.92 0.29-1.93-0.19-2.86-0.46-0.87-1.24-1.56-2.2-1.94l-34.41-13.55c0.07-0.3 0.1-0.61 0.13-0.91 1.05-0.27 4.57-1.32 9.07-4.02 1.84 2.69 7.73 9.96 19.81 13.68 4.57 1.41 8.7 1.9 12.23 1.9 7.79 0 12.67-2.39 12.96-2.54l1.31-0.66-0.71-1.27c-0.23-0.42-5.8-10.19-20.47-14.7-7.57-2.34-13.91-2.14-18.35-1.38 3.04-2.66 6.17-6.05 9.08-10.39 10.83-16.15 8.52-30.17 8.41-30.76l-0.25-1.43-1.43 0.31c-0.58 0.13-14.43 3.32-25.25 19.46-7.15 10.66-8.56 20.37-8.67 25.92-1.3-1.19-2.96-1.86-4.73-1.86-1.76 0-3.4 0.66-4.7 1.83-0.2-1.54-0.86-2.97-1.98-4.09-1.33-1.34-3.1-2.07-4.99-2.07-1.88 0-3.66 0.73-4.99 2.07l-2.03 2.03c-0.66-4.27-3.44-15.58-14.89-26.34-14.16-13.29-28.33-13.29-28.97-13.3l-1.15 0.01c-0.35-1.82-0.79-3.7-1.39-5.67-5.67-18.59-17.99-25.66-18.52-25.95l-1.27-0.72zm168.7 4.93c1.83 2.52 3.45 4.19 4.38 5.06-0.73 1.2-1.33 2.3-1.8 3.26-0.37-2.16-1.11-5.05-2.58-8.32zm-166.06 0.18c3.82 3.1 10.72 10.08 14.47 22.38 3.74 12.24 1.91 21.9 0.47 26.62l-14.94-49zm-1.97 0.62l14.94 48.99c-3.83-3.11-10.73-10.11-14.47-22.36-3.73-12.25-1.91-21.91-0.47-26.63zm148.21 4.21l-1.28 0.7c-0.42 0.23-10.22 5.75-14.82 20.39s0.29 24.76 0.5 25.19l0.65 1.3 1.28-0.7c0.24-0.13 3.71-2.1 7.46-6.62-0.43 0.92-0.65 1.51-0.69 1.62l-0.47 1.38 1.39 0.42c0.08 0.02 0.41 0.11 0.93 0.23-3.98 1.33-6.24 2.89-6.43 3.03l-1.18 0.84 0.89 1.16c0.29 0.37 7.28 9.18 22.47 11.4 2.23 0.33 4.34 0.47 6.31 0.47 11.4 0 18.15-4.7 18.48-4.94l1.19-0.85-0.89-1.15c-0.28-0.35-6.59-8.27-20.18-11 3.12-0.87 6.46-2.13 9.94-3.91 17.32-8.83 22.12-22.21 22.31-22.77l0.48-1.38-1.39-0.42c-0.58-0.18-14.22-4.13-31.53 4.71-7.89 4.03-13.16 8.99-16.61 13.26 0.86-1.77 1.66-3.71 2.33-5.86 4.6-14.64-0.28-24.77-0.5-25.19l-0.64-1.31zm-195.91 0.81c4.919 0.19 14.617 1.67 24.973 9.3 10.31 7.59 14.62 16.43 16.29 21.08l-41.263-30.38zm-1.211 1.67l41.254 30.38c-4.92-0.2-14.65-1.71-24.966-9.31-10.313-7.59-14.624-16.43-16.288-21.07zm32.244 0.5c-1.37 0-2.49 1.12-2.49 2.49 0 1.38 1.12 2.49 2.49 2.49 1.38 0 2.49-1.11 2.49-2.49 0-1.37-1.11-2.49-2.49-2.49zm162.16 2.23l-11.48 36.55c-1.02-3.91-2-11.01 0.77-19.83 2.78-8.83 7.64-14.1 10.71-16.72zm1.97 0.62c1.02 3.9 1.99 11.01-0.78 19.83-2.77 8.83-7.63 14.1-10.7 16.71l11.48-36.54zm9 1.28c-1.37 0-2.49 1.12-2.49 2.49 0 1.38 1.12 2.49 2.49 2.49 1.38 0 2.49-1.11 2.49-2.49 0-1.37-1.11-2.49-2.49-2.49zm-167.78 0.64c-1.38 0-2.49 1.12-2.49 2.5 0 1.37 1.11 2.49 2.49 2.49s2.49-1.12 2.49-2.49c0-1.38-1.11-2.5-2.49-2.5zm-90.385 0.04c-1.375 0-2.488 1.12-2.488 2.49 0 1.38 1.113 2.5 2.488 2.5 1.377 0 2.493-1.12 2.493-2.5 0-1.37-1.116-2.49-2.493-2.49zm346.06 0c-1.37 0-2.49 1.12-2.49 2.49 0 1.38 1.12 2.5 2.49 2.5 1.38 0 2.49-1.12 2.49-2.5 0-1.37-1.11-2.49-2.49-2.49zm-84.27 5.36c-1.37 0-2.49 1.11-2.49 2.49s1.12 2.49 2.49 2.49c1.38 0 2.49-1.11 2.49-2.49s-1.11-2.49-2.49-2.49zm26.41 3.05c1.79 0 3.32 0.12 4.55 0.27l-45.64 23.3c2.38-4.31 8.05-12.32 19.5-18.17 8.55-4.37 16.22-5.4 21.59-5.4zm5.5 2.1c-2.38 4.31-8.05 12.32-19.5 18.17-11.41 5.82-21.24 5.72-26.14 5.13l45.64-23.3zm-71.71 4.26l-28.53 42.55c-0.01-4.94 1.06-14.71 8.19-25.35s15.77-15.33 20.34-17.2zm1.72 1.14c0.02 4.92-1.04 14.68-8.2 25.36-7.13 10.63-15.77 15.33-20.33 17.19l28.53-42.55zm-96.97 1.83c4.85 0.78 14.31 3.4 23.69 12.21 9.33 8.76 12.56 18.05 13.66 22.86l-37.35-35.07zm-1.4 1.51l37.34 35.07c-4.86-0.78-14.31-3.4-23.68-12.21-9.33-8.76-12.57-18.05-13.66-22.86zm-100.5 2.8l-1.74 1.13 0.904 2.34-21.742 14.17-1.773-1.78-1.74 1.14 5.357 8.22 1.74-1.13-1.162-2.74 10.397-6.77 5.256 8.06-2.168 2.03 1.289 1.98 6.64-4.33-1.287-1.97-2.34 0.9-5.256-8.06 9.131-5.95 4.614 7.07c1.698 2.61 1.838 4.38-0.372 6.61l1.45 1.53 4.857-3.95-12.055-18.5zm307.9 4.04c-3.44 0.13-6.6 1.97-8.53 5.15-3.06 5.04-2.29 11.58 4.33 15.6 5.44 3.3 11.7 1.64 14.79-3.45 3.06-5.04 2.28-11.58-4.34-15.6-2.04-1.24-4.19-1.78-6.25-1.7zm-252.37 2.42c-13.222-0.28-21.295 4.67-21.704 4.93l-1.239 0.77 0.826 1.21c0.339 0.49 8.504 12.12 27.537 16.07 4.39 0.91 8.4 1.21 12 1.14 12-0.24 19.26-4.69 19.65-4.93l1.24-0.78-0.82-1.2c-0.34-0.49-8.51-12.12-27.54-16.07-3.57-0.74-6.9-1.08-9.95-1.14zm250.9 1.26c1.72-0.05 3.72 0.5 5.91 1.83 5 3.04 6.04 7.14 4.11 10.33-1.91 3.15-5.93 4.13-10.93 1.1-5.01-3.04-6.05-7.15-4.11-10.33 1.07-1.77 2.81-2.86 5.02-2.93zm-252.32 1.55c3.26-0.03 6.88 0.26 10.8 1.08 12.54 2.6 20.14 8.83 23.59 12.36l-50.151-10.4c3.14-1.29 8.587-2.96 15.761-3.04zm-16.181 5.06l50.161 10.41c-4.55 1.86-13.99 4.56-26.57 1.95-12.54-2.6-20.142-8.83-23.591-12.36zm193.64 0.64c1.99-0.03 4.13 0.09 6.42 0.42 9.16 1.35 15.13 5.32 18.2 7.93l-37.9-5.56c2.77-1.22 7.31-2.7 13.28-2.79zm-26.41 0.85c-1.38 0-2.5 1.11-2.5 2.49 0 1.37 1.12 2.49 2.5 2.49 1.37 0 2.49-1.12 2.49-2.49 0-1.38-1.12-2.49-2.49-2.49zm-106.46 3.5c-1.37 0-2.49 1.11-2.49 2.49 0 1.37 1.12 2.49 2.49 2.49 1.38 0 2.49-1.12 2.49-2.49 0-1.38-1.11-2.49-2.49-2.49zm119.29 0.48l37.91 5.57c-3.67 1.62-10.52 3.7-19.72 2.36-9.15-1.34-15.12-5.31-18.19-7.93zm-16.4 2.05c-1.38 0-2.49 1.12-2.49 2.5 0 1.37 1.11 2.49 2.49 2.49 1.37 0 2.49-1.12 2.49-2.49 0-1.38-1.12-2.5-2.49-2.5zm7.19 0c-1.38 0-2.49 1.12-2.49 2.5 0 1.37 1.11 2.49 2.49 2.49 1.37 0 2.49-1.12 2.49-2.49 0-1.38-1.12-2.5-2.49-2.5zm80.75 2.76l-12.37 14.63 4.96 5.31 1.41-1.15c-1.47-1.92-1.57-3.49-0.01-5.33l7.25-8.57h0.01l11.67 26.82c1.39 0.62 3.87-1.42 3.82-3.56l-15.53-27.68-1.21-0.47zm-180.85 3.73c6.23-0.12 11.09 1.04 14.02 2l-49.32 13.86c3.18-3.75 10.31-10.49 22.69-13.97 4.62-1.3 8.86-1.83 12.61-1.89zm40.73 2.55c1.09 0 2.18 0.42 3.01 1.25 1.66 1.65 1.66 4.35 0.01 6.01l-2.75 2.74v0.01l-3.66 3.66c-1.66 1.65-4.36 1.66-6.02 0s-1.66-4.36 0-6.02l6.4-6.4c0.83-0.83 1.92-1.25 3.01-1.25zm-132.09 0.23c-4.163-0.05-8.463 1.52-11.961 4.99-6.897 6.85-6.463 16.13-0.576 22.06 5.886 5.92 16.094 6.62 23.091-0.33 6.897-6.85 6.46-16.13 0.575-22.05-2.944-2.97-6.967-4.62-11.129-4.67zm105.95 1.21c-3.17 3.75-10.31 10.49-22.68 13.97-12.33 3.47-21.95 1.43-26.64-0.11l49.32-13.86zm66.41 1.15c3.36-0.04 7.35 0.38 11.77 1.75 8.84 2.72 14.14 7.55 16.77 10.61l-36.61-11.28c1.95-0.52 4.7-1.04 8.07-1.08zm-171.43 0.84c2.782 0.04 5.315 1.3 7.26 3.26 4.058 4.08 4.496 11.76-1.764 17.98-5.892 5.85-12.127 4.73-16.017 0.81-4.058-4.08-4.5-11.76 1.762-17.98 2.946-2.92 5.978-4.1 8.759-4.07zm142.83 0.91c1.09 0 2.18 0.41 3.01 1.24 1.65 1.66 1.65 4.36 0 6.02l-6.41 6.4c-1.65 1.66-4.35 1.66-6.01 0s-1.66-4.35-0.01-6.01l2.74-2.74c0-0.01 0.01-0.01 0.01-0.01l3.66-3.66c0.83-0.83 1.92-1.24 3.01-1.24zm19.93 1.3l36.62 11.28c-3.88 1.05-10.97 2.07-19.85-0.67-8.84-2.72-14.14-7.55-16.77-10.61zm-44.97 5.83c0.11 1.01 0.43 1.99 0.98 2.88l-36.16 12.07c-0.51 0.18-1.04 0.17-1.49-0.02-0.4-0.17-0.69-0.46-0.81-0.81-0.26-0.79 0.35-1.72 1.33-2.05l36.15-12.07zm126.31 0.38c-2.02-0.09-4.26 0.62-6.31 2.36-4.75 4.02-5.02 8.89-2.15 12.27 2.29 2.7 5.5 3.07 8.44 2.44-1.95 3.26-2.3 7.14 0.72 10.71 3.54 4.17 9.12 3.46 13.26-0.05 4.65-3.93 6.17-9.87 2.42-14.3-2.87-3.38-7.08-3.09-10.96-1.84 1.85-2.92 1.94-6.47-0.35-9.17-1.22-1.44-3.04-2.32-5.07-2.42zm-95.18 0.24l34.43 13.56c0.49 0.2 0.89 0.55 1.12 0.98 0.2 0.39 0.24 0.79 0.1 1.14-0.31 0.77-1.38 1.1-2.34 0.72l-35.39-13.94 0.98-0.97c0.44-0.45 0.79-0.95 1.1-1.49zm93.73 2.48c1.46-0.06 2.91 0.62 4.18 2.12 2.04 2.41 1.87 5.35 0.17 7.65-3.92 1.28-6.53 1.27-8.61-1.18-1.65-1.94-1.7-4.93 0.86-7.1 1.1-0.93 2.25-1.44 3.4-1.49zm-216.28 6.31l-1.112 1.75 1.793 1.75-9.246 14.58c-4.145 6.54-2.721 12.75 3.934 16.97s12.876 2.86 17.026-3.67l9.25-14.59 2.35 0.88 1.11-1.76-6.86-4.34-1.11 1.75 1.8 1.75-9.07 14.31c-3.16 4.98-7.797 6.12-12.061 3.42-5.338-3.39-5.505-7.8-2.297-12.86l8.918-14.06 2.35 0.87 1.12-1.75-7.895-5zm227.26 5.77c1.44 0.02 2.77 0.47 3.85 1.73 3.05 3.6 1.27 7.28-1.03 9.23-2.77 2.35-6.75 2.62-9.46-0.58-2.26-2.67-2.19-5.88-0.59-8.66 2.18-0.57 4.84-1.74 7.23-1.72zm-28.02 8.87l-0.87 0.12c-0.37 2.68-2.12 5.47-3.75 7.12l0.86 1.36 3.15-2 7.63 12.03-2.97 2.27 1.17 1.84 9.87-6.28-1.16-1.83-3.48 1.82-10.45-16.45zm-167.25 4.68l-0.69 1.96c0.99 0.45 1.37 1.23 1.78 2.33l-8.28 23.46-2.48-0.33-0.69 1.96 7.65 2.7 0.69-1.96-2.14-1.31 7.05-19.98 11.66 29.64 2 0.71 9.6-27.2 2.49 0.33 0.69-1.96-7.66-2.7-0.69 1.96 2.14 1.31-6.86 19.44-11.27-28.6-4.99-1.76zm127 6.13c-2.25 0.05-4.62 0.47-7.03 1.25l-12.03 3.88 0.63 1.98 2.5-0.26 7.97 24.7-2.18 1.25 0.64 1.97 12.03-3.88c9.62-3.1 15.52-10.46 12.33-20.34-2.39-7.41-8.1-10.68-14.86-10.55zm-0.94 2.94c5.02 0.05 9.42 2.89 11.56 9.52 2.71 8.4-2.62 13.84-9.67 16.11-1.94 0.63-4.15 0.99-4.88 1.03l-7.75-24.02 5.57-1.8c1.75-0.57 3.49-0.86 5.17-0.84zm-88.93 3l-0.22 2.06 2.38 0.78-2.8 25.8-2.49 0.25-0.22 2.07 12.57 1.36c10.04 1.09 18.43-3.22 19.55-13.54s-6.15-16.33-16.19-17.42l-12.58-1.36zm61.54 0.67l-22.92 2.3 0.21 2.07 2.5 0.27 2.59 25.83-2.39 0.76 0.21 2.06 22.17-2.23 1.77-6.44-1.91-0.61c-2.5 4.47-4.55 4.82-8.21 5.19l-7.23 0.73-1.23-12.26 10.51-1.06 0.81 2.86 2.35-0.23-0.79-7.89-2.35 0.24-0.27 2.49-10.52 1.06-1.09-10.85 9.34-0.94c3.1-0.31 4.74 0.38 5.7 3.36l2.03-0.58-1.28-6.13zm-54.98 2.74l5.82 0.63c7.32 0.8 12.74 5.51 11.74 14.75-0.95 8.78-8.04 11.57-15.41 10.77-2.02-0.22-4.18-0.78-4.87-1.05l2.72-25.1z" transform="matrix(.8 0 0 -.8 792.89 556.65)" fill="#3e3d3c"/></g></svg>
